<svg xmlns="http://www.w3.org/2000/svg"  viewBox="0 0 50 50" width="50px" height="50px"><path d="M 25 3 C 8.962 3 3 8.963 3 25 C 3 41.037 8.962 47 25 47 C 41.038 47 47 41.037 47 25 C 47 8.963 41.038 3 25 3 z M 33.023438 13.419922 C 34.628437 13.419922 35.927734 14.719219 35.927734 16.324219 C 35.927734 17.929219 34.628438 19.228516 33.023438 19.228516 C 32.012437 19.228516 31.123516 18.711688 30.603516 17.929688 L 26.755859 17.929688 C 25.456859 17.929688 24.310547 19.458969 24.310547 21.292969 L 24.310547 24.884766 L 30.439453 24.884766 C 30.917453 23.935766 31.890391 23.279297 33.025391 23.279297 C 34.630391 23.279297 35.929687 24.578594 35.929688 26.183594 C 35.929688 27.712594 34.630391 29.011891 33.025391 29.087891 C 31.983391 29.087891 31.077453 28.536891 30.564453 27.712891 L 24.310547 27.712891 L 24.310547 30.921875 C 24.386547 34.208875 21.712609 36.884766 18.349609 36.884766 C 15.063609 36.884766 12.386547 34.208875 12.310547 30.921875 C 12.310547 27.558875 15.063125 24.884766 18.578125 24.884766 L 21.558594 24.884766 L 21.558594 21.292969 C 21.558594 17.929969 23.927859 15.101562 26.755859 15.101562 L 30.396484 15.101562 C 30.858484 14.110563 31.857437 13.419922 33.023438 13.419922 z M 18.580078 27.712891 C 16.592078 27.712891 15.140625 29.089828 15.140625 30.923828 C 15.216625 32.681828 16.591609 34.056812 18.349609 34.132812 C 20.107609 34.132812 21.560547 32.757828 21.560547 30.923828 L 21.560547 27.712891 L 18.580078 27.712891 z"/></svg>